# xmcd CD database file
#
# Track frame offsets:
#	150
#	13588
#	26485
#	32510
#	38855
#	44241
#	52342
#	63539
#	126258
#	144794
#	175683
#	202029
#	214868
#	234695
#	255855
#
# Disc length: 3880 seconds
#
# Revision: 0
# Processed by: cddbd v1.5.1PL2 Copyright (c) Steve Scherf et al.
# Submitted via: CDex 1.51
#
DISCID=d80f260f
DTITLE=Patty Waters - The Complete ESP-Disk' Recordings
DYEAR=2005
DGENRE=Jazz
TTITLE0=Moon, Don't Come Up Tonight
TTITLE1=Why Can't I Come To You
TTITLE2=You Thrill Me
TTITLE3=Sad Am I, Glad Am I
TTITLE4=Why Is Love Such a Funny Thing
TTITLE5=I Can't Forget You
TTITLE6=You Loved Me
TTITLE7=Black Is the Color of My True Love's Hair
TTITLE8=Song of Clifford
TTITLE9=Hush Little Baby with Ba Ha Bad
TTITLE10=Wild Is The Wind
TTITLE11=Prayer
TTITLE12=It Never Entered My Mind
TTITLE13=Song of Life with Hush Little Baby
TTITLE14=Song of the One (I Love) or Love, My Love
EXTD=YEAR: 2005
EXTT0=
EXTT1=
EXTT2=
EXTT3=
EXTT4=
EXTT5=
EXTT6=
EXTT7=
EXTT8=
EXTT9=
EXTT10=
EXTT11=
EXTT12=
EXTT13=
EXTT14=
PLAYORDER=
